<svg width="15" height="15" viewBox="0 0 15 15" fill="none" xmlns="http://www.w3.org/2000/svg">
<g id="Frame">
<path id="Vector" d="M4.91222 5.72593C4.78782 5.61001 4.62328 5.54691 4.45327 5.54991C4.28325 5.55291 4.12104 5.62178 4.00081 5.74202C3.88057 5.86225 3.8117 6.02446 3.8087 6.19448C3.8057 6.36449 3.8688 6.52903 3.98472 6.65344L7.48472 10.1534C7.60674 10.2756 7.77197 10.3447 7.94459 10.3458C8.11722 10.347 8.28334 10.28 8.40697 10.1596L11.907 6.74443C12.0289 6.62227 12.0978 6.45699 12.0987 6.2844C12.0997 6.1118 12.0326 5.94579 11.912 5.82232C11.7914 5.69884 11.627 5.62785 11.4544 5.62471C11.2818 5.62158 11.115 5.68655 10.99 5.80556L7.95372 8.76744L4.91222 5.72593Z" fill="#D0D6E0"/>
</g>
</svg>
